<mxfile host="app.diagrams.net" agent="Mozilla/5.0 (Macintosh; Intel Mac OS X 10_15_7) AppleWebKit/537.36 (KHTML, like Gecko) Chrome/140.0.0.0 Safari/537.36" version="28.2.5">
  <diagram name="Page-1" id="mSN7t_Seq5_Lhkn4IPS_">
    <mxGraphModel dx="2211" dy="750" grid="1" gridSize="9" guides="1" tooltips="1" connect="1" arrows="1" fold="1" page="1" pageScale="1" pageWidth="850" pageHeight="1100" background="light-dark(#FFFFFF,#FFFFFF)" math="0" shadow="0">
      <root>
        <mxCell id="0" />
        <mxCell id="1" parent="0" />
        <mxCell id="InJPVs3AEcCOLbNnaPhz-1" value="Kid" style="shape=umlActor;verticalLabelPosition=bottom;verticalAlign=top;html=1;outlineConnect=0;labelBackgroundColor=none;fillColor=#5D7F99;strokeColor=#D0CEE2;fontColor=#1A1A1A;" vertex="1" parent="1">
          <mxGeometry x="30" y="290" width="30" height="60" as="geometry" />
        </mxCell>
        <mxCell id="InJPVs3AEcCOLbNnaPhz-15" value="" style="shape=hexagon;perimeter=hexagonPerimeter2;whiteSpace=wrap;html=1;fixedSize=1;labelBackgroundColor=none;fillColor=#bac8d3;strokeColor=#23445d;" vertex="1" parent="1">
          <mxGeometry x="237" y="264" width="171" height="96" as="geometry" />
        </mxCell>
        <mxCell id="InJPVs3AEcCOLbNnaPhz-17" value="&lt;span style=&quot;white-space: pre;&quot;&gt;&#x9;&lt;/span&gt;Gemini&amp;nbsp; LLM" style="text;html=1;align=center;verticalAlign=middle;whiteSpace=wrap;rounded=0;fontColor=#1A1A1A;" vertex="1" parent="1">
          <mxGeometry x="252" y="285" width="120" height="39" as="geometry" />
        </mxCell>
        <mxCell id="InJPVs3AEcCOLbNnaPhz-18" value="Vector Database" style="shape=datastore;whiteSpace=wrap;html=1;strokeColor=#D0CEE2;fontColor=#1A1A1A;fillColor=#5D7F99;" vertex="1" parent="1">
          <mxGeometry x="283.5" y="456" width="78" height="108" as="geometry" />
        </mxCell>
        <mxCell id="InJPVs3AEcCOLbNnaPhz-19" value="" style="shape=doubleArrow;direction=south;whiteSpace=wrap;html=1;strokeColor=#D0CEE2;fontColor=#1A1A1A;fillColor=light-dark(#5D7F99,#F9FCFF);" vertex="1" parent="1">
          <mxGeometry x="294" y="360" width="60" height="96" as="geometry" />
        </mxCell>
        <mxCell id="InJPVs3AEcCOLbNnaPhz-22" value="" style="html=1;shadow=0;dashed=0;align=center;verticalAlign=middle;shape=mxgraph.arrows2.arrow;dy=0.6;dx=40;notch=0;strokeColor=#D0CEE2;fontColor=#1A1A1A;fillColor=#5D7F99;" vertex="1" parent="1">
          <mxGeometry x="72" y="295" width="168" height="34" as="geometry" />
        </mxCell>
        <mxCell id="InJPVs3AEcCOLbNnaPhz-25" value="" style="ellipse;shape=cloud;whiteSpace=wrap;html=1;strokeColor=#D0CEE2;fontColor=#1A1A1A;fillColor=#5D7F99;" vertex="1" parent="1">
          <mxGeometry x="48" y="192" width="108" height="84" as="geometry" />
        </mxCell>
        <mxCell id="InJPVs3AEcCOLbNnaPhz-6" value="User inputs text into LLM Interface" style="text;html=1;align=center;verticalAlign=middle;whiteSpace=wrap;rounded=0;labelBackgroundColor=none;fontColor=#1A1A1A;" vertex="1" parent="1">
          <mxGeometry x="60" y="196" width="84" height="80" as="geometry" />
        </mxCell>
        <mxCell id="InJPVs3AEcCOLbNnaPhz-27" value="React Interface" style="swimlane;whiteSpace=wrap;html=1;strokeColor=#6c8ebf;fillColor=light-dark(#DAE8FC,#223B2F);gradientColor=#7ea6e0;" vertex="1" parent="1">
          <mxGeometry x="585" y="243" width="207" height="225" as="geometry" />
        </mxCell>
        <mxCell id="InJPVs3AEcCOLbNnaPhz-29" value="" style="whiteSpace=wrap;html=1;aspect=fixed;strokeColor=#D0CEE2;fontColor=#1A1A1A;fillColor=#5D7F99;" vertex="1" parent="InJPVs3AEcCOLbNnaPhz-27">
          <mxGeometry x="16.75" y="31.5" width="175.5" height="175.5" as="geometry" />
        </mxCell>
        <mxCell id="InJPVs3AEcCOLbNnaPhz-30" value="&lt;h1 style=&quot;margin-top: 0px;&quot;&gt;&lt;font style=&quot;font-size: 17px;&quot;&gt;How may i help you today ?&lt;/font&gt;&lt;/h1&gt;" style="text;html=1;whiteSpace=wrap;overflow=hidden;rounded=0;fontColor=#1A1A1A;" vertex="1" parent="InJPVs3AEcCOLbNnaPhz-27">
          <mxGeometry x="36" y="31.5" width="126" height="94.5" as="geometry" />
        </mxCell>
        <mxCell id="InJPVs3AEcCOLbNnaPhz-28" value="" style="shape=singleArrow;whiteSpace=wrap;html=1;strokeColor=#D0CEE2;fontColor=#1A1A1A;fillColor=#5D7F99;" vertex="1" parent="1">
          <mxGeometry x="414" y="290" width="159" height="48" as="geometry" />
        </mxCell>
      </root>
    </mxGraphModel>
  </diagram>
</mxfile>
